<?xml version="1.0" encoding="utf-8"?>
<svg xmlns="http://www.w3.org/2000/svg" width="200" height="200" viewBox="0 0 200 200">
  <g fill="#ffffff" transform="">
    <path xmlns="http://www.w3.org/2000/svg" d="M 129.809 139.772 L 109.863 139.772 L 109.863 119.814 L 159.756 119.814 C 181.777 119.814 199.649 101.931 199.649 79.897 C 199.649 57.491 180.82 39.023 158.586 39.982 C 154.596 20.29 138.957 4.376 118.532 0.811 C 98.214 -2.756 78.48 6.451 67.895 23.269 C 62.256 21.088 56.245 19.97 50.076 19.97 C 22.575 19.97 0.182 42.376 0.182 69.892 C 0.182 97.408 22.575 119.761 50.076 119.761 L 89.968 119.761 L 89.968 139.772 L 70.022 139.772 L 70.022 159.783 L 0.129 159.783 L 0.129 179.742 L 69.969 179.742 L 69.969 199.646 L 129.809 199.646 L 129.809 179.742 L 199.649 179.742 L 199.649 159.783 L 129.809 159.783 L 129.809 139.772 Z M 20.075 69.892 C 20.075 53.392 33.48 39.928 50.022 39.928 C 56.033 39.928 61.777 41.684 66.725 45.038 C 69.278 46.793 72.522 47.219 75.447 46.262 C 78.373 45.304 80.713 43.016 81.724 40.089 C 86.564 26.197 100.607 17.947 115.022 20.449 C 129.755 23.004 140.288 36.309 139.543 51.317 C 139.383 54.67 140.926 57.864 143.586 59.833 C 146.298 61.802 149.808 62.334 152.948 61.164 C 155.341 60.312 157.574 59.833 159.756 59.833 C 170.766 59.833 179.702 68.774 179.702 79.791 C 179.702 90.808 170.766 99.749 159.756 99.749 L 50.022 99.749 C 33.48 99.856 20.075 86.444 20.075 69.892 Z M 109.863 179.688 L 89.916 179.688 L 89.916 159.73 L 109.863 159.73 L 109.863 179.688 Z" style=""/>
    <text style="font-family: Arial, sans-serif; font-size: 60px; font-weight: 700; paint-order: fill; white-space: pre;" x="76.231" y="91.863">IP</text>
  </g>
</svg>